<svg width="118" height="103" viewBox="0 0 118 103" fill="none" xmlns="http://www.w3.org/2000/svg">
<g filter="url(#filter0_f_1_535)">
<ellipse cx="63.5" cy="67.5" rx="31.5" ry="9.5" fill="#949494" fill-opacity="0.7"/>
</g>
<g filter="url(#filter1_bi_1_535)">
<path fill-rule="evenodd" clip-rule="evenodd" d="M87 30C87 30.7882 86.9696 31.5693 86.9099 32.3422C90.1949 29.6296 94.4071 28 99 28C109.493 28 118 36.5066 118 47C118 57.158 110.029 65.4541 100 65.9741V66H99H29H27V65.896C17.4467 64.8966 10 56.8179 10 47C10 37.1618 17.4775 29.07 27.0593 28.0979C28.0405 12.4156 41.0704 0 57 0C73.5685 0 87 13.4315 87 30Z" fill="url(#paint0_linear_1_535)"/>
</g>
<g filter="url(#filter2_f_1_535)">
<ellipse cx="53.5" cy="71.5" rx="31.5" ry="9.5" fill="#4DB4FF"/>
</g>
<g filter="url(#filter3_bi_1_535)">
<path fill-rule="evenodd" clip-rule="evenodd" d="M77 34C77 34.7882 76.9696 35.5693 76.9099 36.3422C80.1949 33.6296 84.4071 32 89 32C99.4934 32 108 40.5066 108 51C108 61.158 100.029 69.4541 90 69.9741V70H89H19H17V69.896C7.44667 68.8966 0 60.8179 0 51C0 41.1618 7.47752 33.07 17.0593 32.0979C18.0405 16.4156 31.0704 4 47 4C63.5685 4 77 17.4315 77 34Z" fill="url(#paint1_linear_1_535)"/>
</g>
<defs>
<filter id="filter0_f_1_535" x="10" y="36" width="107" height="63" filterUnits="userSpaceOnUse" color-interpolation-filters="sRGB">
<feFlood flood-opacity="0" result="BackgroundImageFix"/>
<feBlend mode="normal" in="SourceGraphic" in2="BackgroundImageFix" result="shape"/>
<feGaussianBlur stdDeviation="11" result="effect1_foregroundBlur_1_535"/>
</filter>
<filter id="filter1_bi_1_535" x="3" y="-7" width="122" height="80" filterUnits="userSpaceOnUse" color-interpolation-filters="sRGB">
<feFlood flood-opacity="0" result="BackgroundImageFix"/>
<feGaussianBlur in="BackgroundImageFix" stdDeviation="3.5"/>
<feComposite in2="SourceAlpha" operator="in" result="effect1_backgroundBlur_1_535"/>
<feBlend mode="normal" in="SourceGraphic" in2="effect1_backgroundBlur_1_535" result="shape"/>
<feColorMatrix in="SourceAlpha" type="matrix" values="0 0 0 0 0 0 0 0 0 0 0 0 0 0 0 0 0 0 127 0" result="hardAlpha"/>
<feOffset dy="2"/>
<feGaussianBlur stdDeviation="4"/>
<feComposite in2="hardAlpha" operator="arithmetic" k2="-1" k3="1"/>
<feColorMatrix type="matrix" values="0 0 0 0 1 0 0 0 0 1 0 0 0 0 1 0 0 0 0.25 0"/>
<feBlend mode="normal" in2="shape" result="effect2_innerShadow_1_535"/>
</filter>
<filter id="filter2_f_1_535" x="0" y="40" width="107" height="63" filterUnits="userSpaceOnUse" color-interpolation-filters="sRGB">
<feFlood flood-opacity="0" result="BackgroundImageFix"/>
<feBlend mode="normal" in="SourceGraphic" in2="BackgroundImageFix" result="shape"/>
<feGaussianBlur stdDeviation="11" result="effect1_foregroundBlur_1_535"/>
</filter>
<filter id="filter3_bi_1_535" x="-7" y="-3" width="122" height="80" filterUnits="userSpaceOnUse" color-interpolation-filters="sRGB">
<feFlood flood-opacity="0" result="BackgroundImageFix"/>
<feGaussianBlur in="BackgroundImageFix" stdDeviation="3.5"/>
<feComposite in2="SourceAlpha" operator="in" result="effect1_backgroundBlur_1_535"/>
<feBlend mode="normal" in="SourceGraphic" in2="effect1_backgroundBlur_1_535" result="shape"/>
<feColorMatrix in="SourceAlpha" type="matrix" values="0 0 0 0 0 0 0 0 0 0 0 0 0 0 0 0 0 0 127 0" result="hardAlpha"/>
<feOffset dy="2"/>
<feGaussianBlur stdDeviation="4"/>
<feComposite in2="hardAlpha" operator="arithmetic" k2="-1" k3="1"/>
<feColorMatrix type="matrix" values="0 0 0 0 0 0 0 0 0 0.82 0 0 0 0 1 0 0 0 0.25 0"/>
<feBlend mode="normal" in2="shape" result="effect2_innerShadow_1_535"/>
</filter>
<linearGradient id="paint0_linear_1_535" x1="66" y1="89.5" x2="106.5" y2="1.95655e-07" gradientUnits="userSpaceOnUse">
<stop stop-color="#393737"/>
<stop offset="1" stop-color="#92AABB" stop-opacity="0"/>
</linearGradient>
<linearGradient id="paint1_linear_1_535" x1="56" y1="93.5" x2="96.5" y2="4" gradientUnits="userSpaceOnUse">
<stop stop-color="#0082DF"/>
<stop offset="0.299998" stop-color="#48B2FF" stop-opacity="0.75"/>
<stop offset="1" stop-color="#3BADFF" stop-opacity="0"/>
</linearGradient>
</defs>
</svg>
