<svg width="108" height="99" viewBox="0 0 108 99" fill="none" xmlns="http://www.w3.org/2000/svg">
<g filter="url(#filter0_f_19_1221)">
<ellipse cx="53.5" cy="67.5" rx="31.5" ry="9.5" fill="#949494" fill-opacity="0.7"/>
</g>
<g filter="url(#filter1_bi_19_1221)">
<path fill-rule="evenodd" clip-rule="evenodd" d="M77 30C77 30.7882 76.9696 31.5693 76.9099 32.3422C80.1949 29.6296 84.4071 28 89 28C99.4934 28 108 36.5066 108 47C108 57.158 100.029 65.4541 90 65.9741V66H89H19H17V65.896C7.44667 64.8966 0 56.8179 0 47C0 37.1618 7.47752 29.07 17.0593 28.0979C18.0405 12.4156 31.0704 0 47 0C63.5685 0 77 13.4315 77 30Z" fill="url(#paint0_linear_19_1221)"/>
</g>
<defs>
<filter id="filter0_f_19_1221" x="0" y="36" width="107" height="63" filterUnits="userSpaceOnUse" color-interpolation-filters="sRGB">
<feFlood flood-opacity="0" result="BackgroundImageFix"/>
<feBlend mode="normal" in="SourceGraphic" in2="BackgroundImageFix" result="shape"/>
<feGaussianBlur stdDeviation="11" result="effect1_foregroundBlur_19_1221"/>
</filter>
<filter id="filter1_bi_19_1221" x="-7" y="-7" width="122" height="80" filterUnits="userSpaceOnUse" color-interpolation-filters="sRGB">
<feFlood flood-opacity="0" result="BackgroundImageFix"/>
<feGaussianBlur in="BackgroundImageFix" stdDeviation="3.5"/>
<feComposite in2="SourceAlpha" operator="in" result="effect1_backgroundBlur_19_1221"/>
<feBlend mode="normal" in="SourceGraphic" in2="effect1_backgroundBlur_19_1221" result="shape"/>
<feColorMatrix in="SourceAlpha" type="matrix" values="0 0 0 0 0 0 0 0 0 0 0 0 0 0 0 0 0 0 127 0" result="hardAlpha"/>
<feOffset dy="2"/>
<feGaussianBlur stdDeviation="4"/>
<feComposite in2="hardAlpha" operator="arithmetic" k2="-1" k3="1"/>
<feColorMatrix type="matrix" values="0 0 0 0 1 0 0 0 0 1 0 0 0 0 1 0 0 0 0.25 0"/>
<feBlend mode="normal" in2="shape" result="effect2_innerShadow_19_1221"/>
</filter>
<linearGradient id="paint0_linear_19_1221" x1="56" y1="89.5" x2="96.5" y2="1.95655e-07" gradientUnits="userSpaceOnUse">
<stop stop-color="#393737"/>
<stop offset="1" stop-color="#92AABB" stop-opacity="0"/>
</linearGradient>
</defs>
</svg>
